{
	"asset":{
		"generator":"Khronos glTF Blender I/O v4.1.63",
		"version":"2.0"
	},
	"scene":0,
	"scenes":[
		{
			"name":"Scene",
			"nodes":[
				0,
				1,
				2
			]
		}
	],
	"nodes":[
		{
			"name":"Empty",
			"rotation":[
				0.7071068286895752,
				0,
				0,
				0.7071068286895752
			],
			"translation":[
				0,
				0,
				-2.7828662395477295
			]
		},
		{
			"name":"Cube",
			"rotation":[
				0.9997943639755249,
				0,
				-0.020279642194509506,
				0
			],
			"scale":[
				-1.6631443500518799,
				-1,
				-0.17760536074638367
			],
			"translation":[
				1.1397655010223389,
				0.09939026832580566,
				0.5785658359527588
			]
		},
		{
			"mesh":0,
			"name":"Cube.001",
			"translation":[
				0,
				2.8776698112487793,
				-1.8950843811035156
			]
		}
	],
	"animations":[
		{
			"channels":[
				{
					"sampler":0,
					"target":{
						"node":1,
						"path":"translation"
					}
				},
				{
					"sampler":1,
					"target":{
						"node":1,
						"path":"rotation"
					}
				},
				{
					"sampler":2,
					"target":{
						"node":1,
						"path":"scale"
					}
				}
			],
			"name":"CubeAction",
			"samplers":[
				{
					"input":28,
					"interpolation":"LINEAR",
					"output":29
				},
				{
					"input":28,
					"interpolation":"LINEAR",
					"output":30
				},
				{
					"input":28,
					"interpolation":"LINEAR",
					"output":31
				}
			]
		}
	],
	"materials":[
		{
			"doubleSided":true,
			"name":"base vida.005",
			"pbrMetallicRoughness":{
				"baseColorFactor":[
					1,
					1,
					1,
					0.7944444417953491
				],
				"baseColorTexture":{
					"index":0
				},
				"roughnessFactor":0.7833333015441895
			}
		},
		{
			"doubleSided":true,
			"name":"Material.003",
			"pbrMetallicRoughness":{
				"baseColorFactor":[
					0.38685426115989685,
					0.38086891174316406,
					0.45659345388412476,
					1
				],
				"metallicFactor":0.7833333611488342,
				"roughnessFactor":0.5
			}
		},
		{
			"doubleSided":true,
			"name":"screen.005",
			"pbrMetallicRoughness":{
				"baseColorFactor":[
					0.03429611399769783,
					0.03429611399769783,
					0.03429611399769783,
					1
				],
				"metallicFactor":0,
				"roughnessFactor":0.4000000059604645
			}
		},
		{
			"doubleSided":true,
			"name":"dpad-bevel.005",
			"pbrMetallicRoughness":{
				"baseColorFactor":[
					0.5064200162887573,
					0.5561404228210449,
					0.5737406611442566,
					1
				],
				"metallicFactor":0.7666666507720947,
				"roughnessFactor":0.5
			}
		},
		{
			"doubleSided":true,
			"name":"buttons.005",
			"pbrMetallicRoughness":{
				"roughnessFactor":0.5
			}
		},
		{
			"doubleSided":true,
			"name":"Material.002",
			"pbrMetallicRoughness":{
				"baseColorFactor":[
					0.0797322690486908,
					0.0797322690486908,
					0.0797322690486908,
					1
				],
				"metallicFactor":0.15555556118488312,
				"roughnessFactor":0.5111111402511597
			}
		},
		{
			"doubleSided":true,
			"name":"Material.001",
			"pbrMetallicRoughness":{
				"baseColorFactor":[
					1,
					0.7199909687042236,
					0.612628698348999,
					1
				],
				"metallicFactor":0,
				"roughnessFactor":0.5
			}
		}
	],
	"meshes":[
		{
			"name":"Cube.001",
			"primitives":[
				{
					"attributes":{
						"POSITION":0,
						"NORMAL":1,
						"TEXCOORD_0":2
					},
					"indices":3,
					"material":0
				},
				{
					"attributes":{
						"POSITION":4,
						"NORMAL":5,
						"TEXCOORD_0":6
					},
					"indices":7,
					"material":1
				},
				{
					"attributes":{
						"POSITION":8,
						"NORMAL":9,
						"TEXCOORD_0":10
					},
					"indices":11,
					"material":2
				},
				{
					"attributes":{
						"POSITION":12,
						"NORMAL":13,
						"TEXCOORD_0":14
					},
					"indices":15,
					"material":3
				},
				{
					"attributes":{
						"POSITION":16,
						"NORMAL":17,
						"TEXCOORD_0":18
					},
					"indices":19,
					"material":4
				},
				{
					"attributes":{
						"POSITION":20,
						"NORMAL":21,
						"TEXCOORD_0":22
					},
					"indices":23,
					"material":5
				},
				{
					"attributes":{
						"POSITION":24,
						"NORMAL":25,
						"TEXCOORD_0":26
					},
					"indices":27,
					"material":6
				}
			]
		}
	],
	"textures":[
		{
			"sampler":0,
			"source":0
		}
	],
	"images":[
		{
			"mimeType":"image/png",
			"name":"base vida",
			"uri":"base%20vida.png"
		}
	],
	"accessors":[
		{
			"bufferView":0,
			"componentType":5126,
			"count":120,
			"max":[
				2.376434326171875,
				1.1546733379364014,
				0.16604501008987427
			],
			"min":[
				-2.2951698303222656,
				-1.079953670501709,
				-0.16604501008987427
			],
			"type":"VEC3"
		},
		{
			"bufferView":1,
			"componentType":5126,
			"count":120,
			"type":"VEC3"
		},
		{
			"bufferView":2,
			"componentType":5126,
			"count":120,
			"type":"VEC2"
		},
		{
			"bufferView":3,
			"componentType":5123,
			"count":228,
			"type":"SCALAR"
		},
		{
			"bufferView":4,
			"componentType":5126,
			"count":120,
			"max":[
				-1.713715672492981,
				0.6748413443565369,
				0.20054227113723755
			],
			"min":[
				-2.238405466079712,
				0.1393086314201355,
				0.08615291118621826
			],
			"type":"VEC3"
		},
		{
			"bufferView":5,
			"componentType":5126,
			"count":120,
			"type":"VEC3"
		},
		{
			"bufferView":6,
			"componentType":5126,
			"count":120,
			"type":"VEC2"
		},
		{
			"bufferView":7,
			"componentType":5123,
			"count":192,
			"type":"SCALAR"
		},
		{
			"bufferView":8,
			"componentType":5126,
			"count":24,
			"max":[
				1.367188811302185,
				0.9585331678390503,
				0.17960646748542786
			],
			"min":[
				-1.4614278078079224,
				-0.6904901266098022,
				-0.10834524035453796
			],
			"type":"VEC3"
		},
		{
			"bufferView":9,
			"componentType":5126,
			"count":24,
			"type":"VEC3"
		},
		{
			"bufferView":10,
			"componentType":5126,
			"count":24,
			"type":"VEC2"
		},
		{
			"bufferView":11,
			"componentType":5123,
			"count":36,
			"type":"SCALAR"
		},
		{
			"bufferView":12,
			"componentType":5126,
			"count":384,
			"max":[
				2.240051507949829,
				0.7296620607376099,
				0.1848604679107666
			],
			"min":[
				-2.3090481758117676,
				0.06271728873252869,
				0.018223561346530914
			],
			"type":"VEC3"
		},
		{
			"bufferView":13,
			"componentType":5126,
			"count":384,
			"type":"VEC3"
		},
		{
			"bufferView":14,
			"componentType":5126,
			"count":384,
			"type":"VEC2"
		},
		{
			"bufferView":15,
			"componentType":5123,
			"count":744,
			"type":"SCALAR"
		},
		{
			"bufferView":16,
			"componentType":5126,
			"count":1248,
			"max":[
				2.2213306427001953,
				0.6908131837844849,
				0.19971837103366852
			],
			"min":[
				1.6308153867721558,
				0.10441265255212784,
				0.13003282248973846
			],
			"type":"VEC3"
		},
		{
			"bufferView":17,
			"componentType":5126,
			"count":1248,
			"type":"VEC3"
		},
		{
			"bufferView":18,
			"componentType":5126,
			"count":1248,
			"type":"VEC2"
		},
		{
			"bufferView":19,
			"componentType":5123,
			"count":2448,
			"type":"SCALAR"
		},
		{
			"bufferView":20,
			"componentType":5126,
			"count":896,
			"max":[
				2.0013575553894043,
				0.05316242575645447,
				0.25860723853111267
			],
			"min":[
				-2.043844699859619,
				-0.4011467397212982,
				0.11523610353469849
			],
			"type":"VEC3"
		},
		{
			"bufferView":21,
			"componentType":5126,
			"count":896,
			"type":"VEC3"
		},
		{
			"bufferView":22,
			"componentType":5126,
			"count":896,
			"type":"VEC2"
		},
		{
			"bufferView":23,
			"componentType":5123,
			"count":1512,
			"type":"SCALAR"
		},
		{
			"bufferView":24,
			"componentType":5126,
			"count":5952,
			"max":[
				2.084132671356201,
				-0.5100024938583374,
				0.19880391657352448
			],
			"min":[
				-2.0564520359039307,
				-0.73786461353302,
				0.018117055296897888
			],
			"type":"VEC3"
		},
		{
			"bufferView":25,
			"componentType":5126,
			"count":5952,
			"type":"VEC3"
		},
		{
			"bufferView":26,
			"componentType":5126,
			"count":5952,
			"type":"VEC2"
		},
		{
			"bufferView":27,
			"componentType":5123,
			"count":8640,
			"type":"SCALAR"
		},
		{
			"bufferView":28,
			"componentType":5126,
			"count":1,
			"max":[
				0.3333333333333333
			],
			"min":[
				0.3333333333333333
			],
			"type":"SCALAR"
		},
		{
			"bufferView":29,
			"componentType":5126,
			"count":1,
			"type":"VEC3"
		},
		{
			"bufferView":30,
			"componentType":5126,
			"count":1,
			"type":"VEC4"
		},
		{
			"bufferView":31,
			"componentType":5126,
			"count":1,
			"type":"VEC3"
		}
	],
	"bufferViews":[
		{
			"buffer":0,
			"byteLength":1440,
			"byteOffset":0,
			"target":34962
		},
		{
			"buffer":0,
			"byteLength":1440,
			"byteOffset":1440,
			"target":34962
		},
		{
			"buffer":0,
			"byteLength":960,
			"byteOffset":2880,
			"target":34962
		},
		{
			"buffer":0,
			"byteLength":456,
			"byteOffset":3840,
			"target":34963
		},
		{
			"buffer":0,
			"byteLength":1440,
			"byteOffset":4296,
			"target":34962
		},
		{
			"buffer":0,
			"byteLength":1440,
			"byteOffset":5736,
			"target":34962
		},
		{
			"buffer":0,
			"byteLength":960,
			"byteOffset":7176,
			"target":34962
		},
		{
			"buffer":0,
			"byteLength":384,
			"byteOffset":8136,
			"target":34963
		},
		{
			"buffer":0,
			"byteLength":288,
			"byteOffset":8520,
			"target":34962
		},
		{
			"buffer":0,
			"byteLength":288,
			"byteOffset":8808,
			"target":34962
		},
		{
			"buffer":0,
			"byteLength":192,
			"byteOffset":9096,
			"target":34962
		},
		{
			"buffer":0,
			"byteLength":72,
			"byteOffset":9288,
			"target":34963
		},
		{
			"buffer":0,
			"byteLength":4608,
			"byteOffset":9360,
			"target":34962
		},
		{
			"buffer":0,
			"byteLength":4608,
			"byteOffset":13968,
			"target":34962
		},
		{
			"buffer":0,
			"byteLength":3072,
			"byteOffset":18576,
			"target":34962
		},
		{
			"buffer":0,
			"byteLength":1488,
			"byteOffset":21648,
			"target":34963
		},
		{
			"buffer":0,
			"byteLength":14976,
			"byteOffset":23136,
			"target":34962
		},
		{
			"buffer":0,
			"byteLength":14976,
			"byteOffset":38112,
			"target":34962
		},
		{
			"buffer":0,
			"byteLength":9984,
			"byteOffset":53088,
			"target":34962
		},
		{
			"buffer":0,
			"byteLength":4896,
			"byteOffset":63072,
			"target":34963
		},
		{
			"buffer":0,
			"byteLength":10752,
			"byteOffset":67968,
			"target":34962
		},
		{
			"buffer":0,
			"byteLength":10752,
			"byteOffset":78720,
			"target":34962
		},
		{
			"buffer":0,
			"byteLength":7168,
			"byteOffset":89472,
			"target":34962
		},
		{
			"buffer":0,
			"byteLength":3024,
			"byteOffset":96640,
			"target":34963
		},
		{
			"buffer":0,
			"byteLength":71424,
			"byteOffset":99664,
			"target":34962
		},
		{
			"buffer":0,
			"byteLength":71424,
			"byteOffset":171088,
			"target":34962
		},
		{
			"buffer":0,
			"byteLength":47616,
			"byteOffset":242512,
			"target":34962
		},
		{
			"buffer":0,
			"byteLength":17280,
			"byteOffset":290128,
			"target":34963
		},
		{
			"buffer":0,
			"byteLength":4,
			"byteOffset":307408
		},
		{
			"buffer":0,
			"byteLength":12,
			"byteOffset":307412
		},
		{
			"buffer":0,
			"byteLength":16,
			"byteOffset":307424
		},
		{
			"buffer":0,
			"byteLength":12,
			"byteOffset":307440
		}
	],
	"samplers":[
		{
			"magFilter":9729,
			"minFilter":9987
		}
	],
	"buffers":[
		{
			"byteLength":307452,
			"uri":"product.bin"
		}
	]
}
